HIERARCHY
ROOT Hips
{
 OFFSET 0.000000 0.000000 0.000000
 CHANNELS 6 Xposition Yposition Zposition Yrotation Xrotation Zrotation
 JOINT Chest
 {
  OFFSET 0.000000 9.585900 0.002600
  CHANNELS 3 Yrotation Xrotation Zrotation
  JOINT Chest2
  {
   OFFSET 0.000000 9.601200 -0.005300
   CHANNELS 3 Yrotation Xrotation Zrotation
   JOINT Chest3
   {
    OFFSET 0.000000 9.561800 0.000000
    CHANNELS 3 Yrotation Xrotation Zrotation
    JOINT Chest4
    {
     OFFSET 0.000000 9.552100 0.000000
     CHANNELS 3 Yrotation Xrotation Zrotation
     JOINT Neck
     {
      OFFSET 0.000000 14.453000 0.000000
      CHANNELS 3 Yrotation Xrotation Zrotation
      JOINT Head
      {
       OFFSET 0.000000 8.936500 -0.011300
       CHANNELS 3 Yrotation Xrotation Zrotation
       End Site
       {
        OFFSET 0.000000 17.073600 -0.006000
       }
      }
     }
     JOINT RightCollar
     {
      OFFSET -2.921100 9.558500 0.000000
      CHANNELS 3 Yrotation Xrotation Zrotation
      JOINT RightShoulder
      {
       OFFSET -13.519700 0.000000 0.000000
       CHANNELS 3 Yrotation Xrotation Zrotation
       JOINT RightElbow
       {
        OFFSET 0.000000 -29.696600 0.000000
        CHANNELS 3 Yrotation Xrotation Zrotation
        JOINT RightWrist
        {
         OFFSET 0.000000 -24.004700 0.000000
         CHANNELS 3 Yrotation Xrotation Zrotation
         End Site
         {
          OFFSET 0.000000 -17.728500 0.000000
         }
        }
       }
      }
     }
     JOINT LeftCollar
     {
      OFFSET 2.921100 9.558500 0.000000
      CHANNELS 3 Yrotation Xrotation Zrotation
      JOINT LeftShoulder
      {
       OFFSET 13.519700 0.000000 0.000000
       CHANNELS 3 Yrotation Xrotation Zrotation
       JOINT LeftElbow
       {
        OFFSET 0.000000 -29.696600 0.000000
        CHANNELS 3 Yrotation Xrotation Zrotation
        JOINT LeftWrist
        {
         OFFSET 0.000000 -24.004700 0.000000
         CHANNELS 3 Yrotation Xrotation Zrotation
         End Site
         {
          OFFSET 0.000000 -17.728500 0.000000
         }
        }
       }
      }
     }
    }
   }
  }
 }
 JOINT RightHip
 {
  OFFSET -7.771700 -0.012900 -0.001300
  CHANNELS 3 Yrotation Xrotation Zrotation
  JOINT RightKnee
  {
   OFFSET 0.000000 -40.869800 0.001200
   CHANNELS 3 Yrotation Xrotation Zrotation
   JOINT RightAnkle
   {
    OFFSET 0.000000 -39.717900 0.002100
    CHANNELS 3 Yrotation Xrotation Zrotation
    JOINT RightToe
    {
     OFFSET 0.000000 -4.965400 11.033500
     CHANNELS 3 Yrotation Xrotation Zrotation
     End Site
     {
      OFFSET 0.000000 -1.423100 5.872300
     }
    }
   }
  }
 }
 JOINT LeftHip
 {
  OFFSET 7.771700 -0.012900 -0.001300
  CHANNELS 3 Yrotation Xrotation Zrotation
  JOINT LeftKnee
  {
   OFFSET 0.000000 -40.869800 0.001200
   CHANNELS 3 Yrotation Xrotation Zrotation
   JOINT LeftAnkle
   {
    OFFSET 0.000000 -39.717900 0.002100
    CHANNELS 3 Yrotation Xrotation Zrotation
    JOINT LeftToe
    {
     OFFSET 0.000000 -4.965400 11.033500
     CHANNELS 3 Yrotation Xrotation Zrotation
     End Site
     {
      OFFSET 0.000000 -1.423100 5.872300
     }
    }
   }
  }
 }
}
MOTION
Frames: 5
Frame Time: 0.008333
-21.088340 49.063079 28.663594 173.341985 -25.968376 -1.414631 -0.364617 10.243145 1.582177 -0.272663 5.820967 1.363897 -0.319413 7.277236 1.702830 -0.306384 5.823289 1.383825 -3.577484 21.976950 -5.146955 -5.055674 4.956255 -8.322187 4.957289 6.119765 -4.827383 5.824123 -25.987276 -10.868909 33.597244 -45.805998 -17.516602 12.568406 5.585124 -33.750040 -4.196976 2.829189 -4.292937 6.605170 -23.979244 -0.341280 -65.761783 -35.779566 37.246897 -10.020840 12.695015 35.544096 26.649056 -54.223566 -31.137941 -112.603717 70.106553 -102.220035 -0.509027 -5.495668 5.046071 0.422491 -0.946634 0.181041 -3.963836 -57.363522 15.636902 117.469439 81.809515 113.818301 -5.098318 -12.172466 -0.084659 0.150075 0.825747 0.071021
-21.087181 49.061430 28.664745 173.331508 -25.985090 -1.404301 -0.376989 10.252629 1.582036 -0.296759 5.821004 1.371372 -0.331574 7.284605 1.705644 -0.289565 5.826044 1.370439 -3.706642 22.003820 -5.195518 -5.276809 5.001411 -8.374786 4.977117 6.124902 -4.805109 5.871888 -26.009062 -10.934044 33.597985 -45.797641 -17.507561 12.558848 5.522692 -33.774006 -4.228789 2.849461 -4.294579 6.647668 -23.993123 -0.352138 -65.757140 -35.769746 37.267780 -10.044595 12.703919 35.542210 26.648920 -54.209880 -31.130412 -112.592792 70.086985 -102.213248 -0.473316 -5.504777 5.048900 0.413681 -0.941405 0.176697 -3.993949 -57.339647 15.663641 117.479778 81.807695 113.802885 -5.103694 -12.173457 -0.088254 0.154276 0.827337 0.072607
-21.086854 49.059541 28.666009 173.316563 -25.997406 -1.386851 -0.385514 10.257031 1.573856 -0.283865 5.827838 1.366719 -0.333299 7.285631 1.706019 -0.304995 5.825064 1.379051 -3.836049 22.035205 -5.236883 -5.489016 5.055734 -8.426156 4.988341 6.130312 -4.785955 5.927859 -26.056963 -11.003598 33.563400 -45.773424 -17.459526 12.511909 5.462231 -33.819351 -4.228964 2.855091 -4.297195 6.650468 -23.989608 -0.351345 -65.742966 -35.765067 37.272687 -10.038201 12.701685 35.544559 26.669310 -54.206928 -31.139158 -112.611991 70.082257 -102.240980 -0.461185 -5.492677 5.053667 0.410119 -0.954911 0.172911 -3.988934 -57.323969 15.659536 117.465141 81.804815 113.777461 -5.110478 -12.171975 -0.093860 0.158858 0.826353 0.074238
-21.085682 49.057679 28.666718 173.304601 -26.011350 -1.375643 -0.392131 10.259417 1.576250 -0.289216 5.830610 1.366541 -0.340119 7.289244 1.705654 -0.309679 5.829542 1.379835 -3.954518 22.073139 -5.282407 -5.692127 5.121721 -8.476614 4.997189 6.144083 -4.759603 6.007509 -26.151172 -11.106744 33.427313 -45.774539 -17.292726 12.486073 5.403080 -33.911633 -4.209687 2.857391 -4.312662 6.623230 -23.986243 -0.336279 -65.705746 -35.763731 37.265585 -10.028142 12.700176 35.549278 26.683790 -54.196564 -31.140446 -112.623456 70.079847 -102.253451 -0.452836 -5.492683 5.057726 0.410670 -0.956818 0.170925 -4.017621 -57.304474 15.680854 117.462766 81.798404 113.757107 -5.118377 -12.167341 -0.104028 0.167317 0.823198 0.076188
-21.086404 49.055119 28.667571 173.296029 -26.020540 -1.355441 -0.407429 10.256242 1.566135 -0.294229 5.834145 1.366882 -0.366974 7.290031 1.719458 -0.297692 5.837923 1.367685 -4.060408 22.118030 -5.331894 -5.883337 5.200251 -8.526188 5.005027 6.164225 -4.725721 6.080995 -26.228362 -11.213197 33.249543 -45.801137 -17.100674 12.459974 5.291992 -34.033574 -4.208809 2.865956 -4.317510 6.651450 -23.994773 -0.357463 -65.692504 -35.759684 37.261132 -10.006841 12.706832 35.547920 26.727852 -54.186304 -31.174045 -112.649908 70.074022 -102.283951 -0.432184 -5.482441 5.075454 0.399282 -0.967332 0.167570 -4.053561 -57.288720 15.697434 117.485594 81.795200 113.751089 -5.121239 -12.160910 -0.112477 0.171469 0.818586 0.076624
